<?xml version="1.0" encoding="utf-8"?>
<!-- Generator: Adobe Illustrator 23.0.4, SVG Export Plug-In . SVG Version: 6.00 Build 0)  -->
<svg version="1.1" id="Layer_1" xmlns="http://www.w3.org/2000/svg" xmlns:xlink="http://www.w3.org/1999/xlink" x="0px" y="0px"
	 viewBox="0 0 360 360" style="enable-background:new 0 0 360 360;" xml:space="preserve">
<g>
	<path d="M270.65,343.8c-1.92,0-3.46,0-4.99,0c-58.14,0-116.27-0.2-174.4,0.21c-9.06,0.06-15.52-3.74-21.67-9.04
		c-8.59-7.42-12.03-17.62-13.11-28.44c-0.78-7.83-0.15-15.79,0.26-23.88c9.91,12.1,20.14,23.57,34.92,30.44
		c2.41-7.44,4.79-14.73,7.14-22.02c10.91-33.81,21.3-67.81,32.91-101.38c6.43-18.59,14.89-36.47,22.47-54.66
		c17.21-41.34,34.44-82.67,51.68-124c0.44-1.05,1.03-2.05,2.01-3.99c0.85,4.43,1.56,7.98,2.23,11.55c0.78,4.18,1.69,8.34,2.23,12.56
		c0.31,2.42,1.24,3.14,3.66,3.22c22.8,0.73,45.6,1.6,68.4,2.42c1.9,0.07,3.8,0.17,6.26,0.28c-1.82,6.35-3.5,12.24-5.19,18.14
		c-1.63,5.7-2.04,12.25-5.26,16.84c-3.12,4.44-9.17,6.78-13.86,10.14c-9.77,6.99-19.03,14.55-26.82,23.79
		c-1.52,1.8-2.11,3.32-1.59,5.82c14.83,71.05,29.53,142.13,44.38,213.18c0.3,1.46,1.77,3.04,3.12,3.85
		c5.77,3.44,9.7,8.18,11.92,14.82c-5.46,0-10.46,0-15.77,0c-1.83-13.42-12.41-18.22-23.1-22.7c-2.44-1.02-3.62-2.26-4.41-4.65
		c-8.03-24.48-16.16-48.93-24.27-73.39c-0.4-1.21-0.84-2.41-1.45-4.14c-3.64,12.23-7.11,23.93-10.83,36.44
		c-6.86-9.16-15.33-15.73-24.64-21.24c-9.36-5.54-19.27-9.75-30.22-12.26c-1.54,2.77-3.08,5.51-4.84,8.68
		c3.22,1.13,5.98,2.07,8.73,3.07c17.82,6.48,33.41,16.03,44.31,32.07c4.65,6.84,7.39,14.39,8.52,22.56
		c0.49,3.55,0.75,7.17,1.72,10.59c0.33,1.15,2.42,2.2,3.88,2.55c10.1,2.46,20.31,4.49,30.34,7.16c3.38,0.9,6.54,3.03,9.5,5.04
		C268.19,335.73,270.56,338.9,270.65,343.8z"/>
</g>
</svg>
