<svg id="Layer_1" data-name="Layer 1" xmlns="http://www.w3.org/2000/svg" viewBox="0 0 1000 1000"><title>paw-print</title><path d="M160.78,276.23c.16,11.06,2.31,22.34,3.47,33.05,2.68,24.75,34.18,32.21,51.62,16.78,2.07-1.83,4.44-3.58,5.84-5.87,12.9-21.22,32.5-32.14,55.73-39.09,10.31-3.08,20.11-9.43,28.78-16.08,16.27-12.47,15.75-30.83-.83-42.69-27.93-20-59.48-29.1-93.67-28.34-20.94.47-37.21,13.15-43.08,34.6-3.14,11.49-5,23.25-7,35A70.05,70.05,0,0,0,160.78,276.23Z"/><path d="M458.82,421.9a261,261,0,0,0,2.87,33.69c3.85,25.81,35.21,29,49.45,17.6,3.69-2.94,7.65-6.08,10-10,11.09-18.35,27.7-27.92,47.68-34.53a116.4,116.4,0,0,0,35.93-19.88c15.48-12.55,14.13-29.2-1.93-40.81-27.47-19.86-58.69-28.95-92.32-28.7-22.78.16-38.77,13.12-45.22,36.72-2.73,10-5.35,20.9-6.11,31.26C458.85,411.91,458.74,416.86,458.82,421.9Z"/><path d="M478,754.31c1.28,10.21,2,20.49,3.93,30.54,4.47,23.59,31.74,33.13,50.66,18a10.6,10.6,0,0,0,2.59-2.43c15.81-26,41.09-37.83,68.48-47.31,8.29-2.87,16.07-8.74,22.6-14.82,13.81-12.87,12.82-27.72-2.12-39.33-19.15-14.88-41.43-22.76-65.06-27a142.07,142.07,0,0,0-23.53-2.46c-26.14-.21-41.33,10.89-49.5,35.7a97.2,97.2,0,0,0-4.13,16C480.31,732.19,479.28,743.2,478,754.31Z"/><path d="M775.09,897.36c1.4,11.81,2.38,21.63,3.77,31.38,1.68,11.78,7,21,19.24,24.5s23.46,2.28,33.31-6.4a4.18,4.18,0,0,0,.86-.81c15.87-25.8,40.63-38.45,68.4-47.15,6.23-2,12-6.16,17.33-10.14,20.66-15.33,20.22-33.42-1-47.65-19.35-13-40.87-20.41-63.71-24.27-3.9-.66-7.81-1.29-11.74-1.74C810,811.49,789.25,825.17,781.69,856,778.23,870.07,777,884.73,775.09,897.36Z"/><path d="M752.51,726.75c2.24,19.46,8.66,38.35,26.31,51.82,9,6.84,18.84,10.89,29.74,6.43,11.86-4.86,17.08-15.71,17.34-27.53.49-22.21-6.51-42.08-24.49-56.4-9.47-7.54-20.37-13.14-32.68-6.74S753,712.2,752.51,726.75Z"/><path d="M469.69,656.26c-.21-29.38-43-61.2-70.86-52.64-11.82,3.64-19.51,15-17.7,27.28a49.45,49.45,0,0,0,4.8,15.67c11.34,21.52,30.18,33,53.54,36.71C456.15,685.94,469.81,673,469.69,656.26Z"/><path d="M705.67,747.94c-20.43-.09-31.87,16-25.95,36.4,6.44,22.24,35.73,44.2,59.19,44.37,19.75.15,32.19-16,26.93-35C759,768.92,731.54,748,705.67,747.94Z"/><path d="M455.55,583.63c2.07,19.32,9.87,39.72,30.94,52.64,17,10.41,34.22,3.86,40.44-14.95,8.13-24.6-9.59-62.76-33.72-72.61C473,540.47,455.5,554.84,455.55,583.63Z"/><path d="M181.46,165.31c15.54.13,27-9.4,28.65-23.31,2.82-24.58-4-46.2-23.79-62.2-8.7-7-18.46-12.85-30.39-7.77-12.88,5.49-18.37,16.89-18.08,29.52.59,25.37,10.06,46.9,33.17,60.22C175,164.06,179.81,164.78,181.46,165.31Z"/><path d="M508.26,276.05c-1.3-19.55-7.91-37.26-24-50.2-9.75-7.85-20.54-14.19-33.46-7.29-12.76,6.81-16.57,19.28-15.72,32.2,1.24,18.9,7.75,36.17,22.71,49.13,9.67,8.38,20.45,14.83,33.29,9.15C504.66,303,508.28,290.5,508.26,276.05Z"/><path d="M91.94,126.7c-21.56-.51-33.67,15.76-26.93,36.17,7.73,23.38,35,44.27,58.85,45,20.71.66,33.38-19.05,25.66-39.95C141.47,146.14,115.09,127.24,91.94,126.7Z"/><path d="M387.86,272.19c-20.31.18-31.69,15.7-25.84,35.24,6.8,22.73,33.29,43.91,56.9,45.52,21.63,1.47,35.21-16.38,28.57-37.54C440.27,292.44,412,272,387.86,272.19Z"/><path d="M433.38,771.49c16.71.66,27.11-2.94,33.35-13.32,6.33-10.54,3.6-21.39-2.16-31.5-10.16-17.84-38.77-30.54-58.42-26.08-18.86,4.28-26.9,24.09-16.6,42.14C400.21,761.4,417.22,770.05,433.38,771.49Z"/><path d="M419.1,441.18c14.4,0,25.5-6.44,29.17-17.84,5.05-15.71-2.41-28.19-13.15-38-13-11.85-29.22-17.18-47-15.36-18,1.84-28,20.49-20.9,38.25C374.89,427.53,396.47,441.23,419.1,441.18Z"/><path d="M101.4,224.41c-29.48.25-41.88,21.33-29.12,43.26,11.62,20,30.25,28.75,52.6,28.11s33.53-20,24.25-40.3C139.08,233.38,119.51,226.45,101.4,224.41Z"/><path d="M227.43,135.54c1.42,16.76,4,33,19.36,43.64,13.85,9.54,28.43,7.07,38.22-6.5,12.68-17.58,9.73-51.92-5.89-67.08C270.3,97,259.6,92.29,247.85,97.13c-13.3,5.48-18.09,17.95-20.37,31.3C227.09,130.74,227.43,133.17,227.43,135.54Z"/><path d="M524.52,280.45c1.54,16.28,3.65,32.41,18.17,43.16,15.61,11.56,29.56,9.06,40.47-7,11.27-16.59,9-48-4.78-63.41-8.48-9.49-19.17-15.32-31.66-11.2-14.91,4.91-19.37,18.55-22.14,32.54C524.19,276.43,524.52,278.47,524.52,280.45Z"/><path d="M732.42,917c30,0,42.38-20.59,30-43.57-9.73-18.09-37.68-31.54-57.52-27.68-18.94,3.68-27.88,21.64-19.19,40C695.72,906.88,714.09,915.26,732.42,917Z"/><path d="M907.71,765.59a90.22,90.22,0,0,0-7.14-29.15c-6-13.57-19.37-21.2-32.22-19.49-13.65,1.83-20.2,11.84-23.67,23.62-5,17-2.59,33.8,6.38,49,7.19,12.2,22.18,18.88,33.08,16.2C903.7,801,908.87,783.34,907.71,765.59Z"/><path d="M545.61,612.93a83.69,83.69,0,0,0,6.12,27c6.25,14.4,21.28,22.78,34,20.49,11.78-2.12,23.58-15.48,23.95-30.47a109.12,109.12,0,0,0-4.53-34.7c-5.3-17-19.94-25.6-35.23-23.51C549.85,574.51,544.48,594.06,545.61,612.93Z"/></svg>